<mxfile host="app.diagrams.net" agent="Mozilla/5.0 (Windows NT 10.0; Win64; x64) AppleWebKit/537.36 (KHTML, like Gecko) Chrome/131.0.0.0 Safari/537.36" version="26.0.6">
  <diagram name="第 1 页" id="EpPXmLPkkomnz7rNQVSm">
    <mxGraphModel dx="1674" dy="772" grid="1" gridSize="10" guides="1" tooltips="1" connect="1" arrows="1" fold="1" page="1" pageScale="1" pageWidth="827" pageHeight="1169" math="0" shadow="0">
      <root>
        <mxCell id="0" />
        <mxCell id="1" parent="0" />
        <mxCell id="FnAUWs0G80Zd_X7ktiPO-1" value="TraceManager::Create" style="rounded=0;whiteSpace=wrap;html=1;" vertex="1" parent="1">
          <mxGeometry x="20" y="120" width="170" height="50" as="geometry" />
        </mxCell>
        <mxCell id="FnAUWs0G80Zd_X7ktiPO-2" value="TraceManager::TraceManager" style="rounded=0;whiteSpace=wrap;html=1;" vertex="1" parent="1">
          <mxGeometry x="20" y="210" width="170" height="50" as="geometry" />
        </mxCell>
        <mxCell id="FnAUWs0G80Zd_X7ktiPO-3" value="InitTracer" style="rounded=0;whiteSpace=wrap;html=1;" vertex="1" parent="1">
          <mxGeometry x="20" y="300" width="170" height="50" as="geometry" />
        </mxCell>
        <mxCell id="FnAUWs0G80Zd_X7ktiPO-4" value="Trace&lt;div&gt;初始化&lt;/div&gt;" style="rounded=0;whiteSpace=wrap;html=1;" vertex="1" parent="1">
          <mxGeometry x="220" y="120" width="50" height="230" as="geometry" />
        </mxCell>
        <mxCell id="FnAUWs0G80Zd_X7ktiPO-5" value="HandleInfer 为例" style="rounded=0;whiteSpace=wrap;html=1;" vertex="1" parent="1">
          <mxGeometry x="20" y="370" width="250" height="50" as="geometry" />
        </mxCell>
      </root>
    </mxGraphModel>
  </diagram>
</mxfile>
